PathFileType	4	(X/Y/Z)	C:/Users/beibeiliu/ov580/test_trc/capture2\sequence.20_training_dense_left.trc
DataRate	CameraRate	NumFrames	NumMarkers	Units	OrigDataRate	OrigDataStartFrame	OrigNumFrames
120	120	18	19	mm	120	1	337
Frame#	Time	ThumbCMC			ThumbMCP			ThumbIP			ThumbTip			IndexMCP			IndexPIP			IndexTip			MiddleMCP			MiddlePIP			MiddleTip			RingMCP			RingPIP			RingTip			PinkyMCP			PinkyPIP			PinkyTip			BackHand1			BackHand2			BackHand3	
		X0	Y0	Z0	X1	Y1	Z1	X2	Y2	Z2	X3	Y3	Z3	X4	Y4	Z4	X5	Y5	Z5	X6	Y6	Z6	X7	Y7	Z7	X8	Y8	Z8	X9	Y9	Z9	X10	Y10	Z10	X11	Y11	Z11	X12	Y12	Z12	X13	Y13	Z13	X14	Y14	Z14	X15	Y15	Z15	X16	Y16	Z16	X17	Y17	Z17	X18	Y18	Z18	
0	0	-110.325	45.4656	4.1606	-93.3201	31.8484	-10.0697	-70.2214	27.7088	-25.0203	-52.3779	22.7043	-41.9088	-109.891	55.3472	-71.5619	-101.706	52.2368	-95.6131	-97.3079	49.6713	-126.121	-128.943	58.6576	-84.2016	-127.656	55.3894	-111.187	-127.441	48.8509	-139.982	-148.16	57.091	-85.7097	-149.045	54.9266	-106.713	-148.92	50.8201	-133.319	-175.588	53.2875	-76.9165	-178.135	49.6179	-94.5858	-178.714	52.7236	-119.874	-157.003	71.0846	-38.028	-164.274	75.9641	-4.35428	-130.476	70.3355	-16.3044	
1	0.00833333	-112.251	45.3216	1.22966	-92.7532	32.8261	-11.3407	-75.5344	27.4185	-28.0538	-54.0413	21.9988	-42.2219	-111.256	55.9807	-73.4844	-103.755	53.2559	-100.379	-100.432	49.5458	-127.532	-128.988	58.3444	-86.9718	-127.901	55.2126	-108.783	-128.179	48.8971	-140.128	-153.932	57.7425	-84.8723	-149.209	53.5657	-107.277	-148.52	50.2083	-138.437	-174.623	51.9854	-72.8267	-179.651	49.4993	-99.9527	-182.879	53.597	-118.962	-161.587	70.1146	-35.1707	-164.066	76.1512	-7.3164	-130.838	69.3641	-18.2109	
2	0.0166667	-113.337	45.3624	2.89259	-95.6835	32.8565	-9.51046	-71.3786	26.794	-29.2885	-58.191	22.0708	-39.801	-106.234	54.982	-76.3044	-104.866	52.4772	-98.2978	-97.6302	49.8723	-122.746	-132.315	59.0877	-84.1789	-128.613	54.5851	-110.119	-125.672	48.7302	-138.105	-149.88	56.7855	-82.1426	-149.546	52.4348	-111.869	-150.189	49.1467	-137.703	-176.273	52.9323	-74.4329	-180.351	48.7677	-97.818	-181.878	50.5776	-119.61	-162.692	70.7289	-36.1287	-164.419	74.3999	-7.5779	-133.684	69.8669	-16.034	
3	0.025	-108.795	45.5276	-0.919967	-94.8428	32.6099	-12.6139	-73.3495	26.8983	-28.0717	-57.5346	21.8737	-37.9287	-109.132	54.9736	-76.3054	-100.232	52.3311	-100.936	-103.374	49.9428	-122.773	-130.311	58.2717	-82.6036	-128.888	53.9826	-112.32	-128.664	48.2056	-139.237	-149.065	56.4146	-84.7597	-150.598	52.2956	-110.728	-148.617	48.9602	-132.515	-171.985	51.0237	-72.5835	-175.757	48.9977	-97.0627	-181.949	52.2229	-119.212	-160.477	68.8524	-38.5976	-167.746	74.9145	-9.57162	-131.451	69.7634	-18.7964	
4	0.0333333	-113.732	45.1806	1.716	-92.6869	32.1707	-13.5879	-71.1553	26.4961	-25.4578	-54.1376	21.2581	-38.0394	-106.693	55.0891	-72.2865	-102.297	52.9786	-96.2404	-98.3644	50.2235	-121.736	-127.116	58.5954	-87.8184	-125.932	52.2959	-114.053	-126.284	47.9664	-137.413	-153.879	55.4031	-84.6503	-149.131	51.7638	-111.82	-150.232	47.3357	-137.094	-177.018	50.6332	-75.649	-174.674	47.0779	-95.5071	-182.07	51.0811	-119.221	-160.898	70.2403	-38.2008	-161.623	74.4351	-9.78255	-132.112	68.562	-18.8819	
5	0.0416667	-111.803	44.4386	-1.65431	-93.3556	32.157	-12.5977	-71.6414	26.2171	-29.6622	-53.0006	20.6811	-38.7032	-105.872	53.7028	-70.6309	-104.128	51.1308	-100.32	-98.7077	48.5917	-121.467	-131.339	56.357	-87.0586	-126.985	51.7312	-111.059	-129.408	45.9201	-138.365	-154.196	54.2251	-84.4843	-152.221	50.328	-111.55	-152.105	46.7656	-133.817	-174.396	50.2061	-74.6285	-174.993	45.9745	-93.2954	-182.516	47.4752	-118.36	-158.183	68.7078	-33.7826	-164.359	72.9649	-7.90083	-129.032	67.3979	-16.5255	
6	0.05	-109.258	44.9174	-0.20328	-90.4276	32.1257	-11.8874	-74.1742	25.042	-25.4764	-55.8077	20.9303	-38.9173	-108.824	53.8568	-75.9274	-101.177	50.3319	-95.3971	-100.832	47.4268	-121.919	-132.091	55.5242	-87.4031	-127.058	50.7533	-108.325	-127.035	45.4376	-139.537	-149.712	53.1248	-81.2777	-151.28	49.202	-108.025	-147.676	46.1203	-136.626	-176.483	49.1869	-74.6086	-177.206	45.0913	-98.6988	-181.788	47.011	-119.886	-157.461	66.0806	-32.8337	-166.117	73.0687	-6.35069	-132.219	69.4263	-15.7949	
7	0.0583333	-110.318	45.4101	4.70665	-91.9127	31.7316	-8.80753	-68.7045	26.6277	-26.8611	-52.3027	21.6212	-36.4424	-107.77	53.8554	-74.1199	-99.7573	49.0858	-99.6701	-101.594	47.0178	-121.889	-130.217	54.6736	-86.397	-127.923	49.7684	-108.943	-123.318	42.9994	-141.178	-149.219	52.4477	-82.0839	-153.5	47.9754	-108.436	-150.758	44.1816	-132.925	-175.55	48.6312	-76.5105	-175.852	43.6418	-94.54	-180.521	44.2829	-122.285	-162.713	66.1103	-33.5747	-165.705	71.7885	-7.80616	-129.09	69.3754	-15.8518	
8	0.0666667	-109.563	44.6153	2.06707	-91.1438	31.8624	-11.6379	-72.5998	26.7238	-26.9629	-51.6592	22.5244	-40.7536	-108.035	53.4404	-71.7792	-101.113	49.2827	-100.46	-96.1046	45.0906	-125.189	-130.004	55.1508	-82.6086	-130.139	49.5601	-112.537	-126.309	43.0254	-138.697	-150.868	52.0471	-83.6356	-152.717	47.5026	-107.531	-146.94	42.4959	-134.735	-175.941	46.8622	-71.4764	-175.494	42.329	-92.8369	-181.146	43.3811	-119.423	-159.792	64.4362	-34.3401	-166.927	70.7009	-4.61662	-131.361	67.1292	-14.8656	
9	0.075	-111.829	45.9979	3.42515	-87.228	33.7648	-9.01079	-68.2442	29.5014	-22.7187	-54.5918	23.3929	-37.8601	-106.747	53.459	-72.6758	-104.243	50.29	-95.8933	-100.2	47.1663	-122.65	-128.322	55.4004	-84.5257	-126.089	50.3289	-109.657	-125.515	42.8538	-136.784	-147.264	51.8909	-83.9584	-153.305	47.617	-105.867	-148.238	41.314	-132.836	-171.14	45.3389	-70.1925	-176.091	40.4905	-95.3137	-178.791	40.8829	-118.026	-162.819	64.9149	-34.1841	-166.136	70.8091	-8.52741	-130.854	68.1742	-13.8668	
10	0.0833333	-109.077	48.4603	2.19924	-89.135	36.278	-8.94609	-68.4291	31.4495	-24.7438	-50.0663	27.5388	-38.2569	-109.034	54.5289	-73.8234	-101.237	51.2955	-96.1726	-100.206	47.5133	-124.515	-129.477	55.7142	-86.0579	-126.857	50.1146	-108.369	-128.641	42.9267	-136.682	-153.595	50.338	-82.7144	-151.959	46.4306	-105.894	-146.341	41.3934	-133.869	-170.778	43.6937	-70.5671	-174.685	39.332	-94.6071	-178.025	38.3363	-117.278	-163.229	64.2586	-33.7794	-166.225	68.8822	-9.19204	-133.423	69.8645	-15.4653	
11	0.0916667	-113.509	49.3131	5.16224	-87.3377	39.7631	-5.77447	-67.513	36.4267	-22.5747	-54.2685	31.9351	-38.837	-107.987	58.9663	-72.4894	-101.21	55.9325	-97.1897	-100.98	53.0893	-119.529	-130.184	57.8853	-81.8495	-128.757	52.8628	-109.526	-125.678	45.5394	-139.012	-152.225	51.0355	-79.5479	-148.138	47.2745	-103.799	-147.857	43.0788	-129.784	-168.337	43.5875	-74.8527	-171.126	37.9895	-91.7163	-178.073	37.0993	-118.682	-163.824	65.0026	-34.8007	-170.781	68.9272	-6.8681	-131.972	69.3576	-14.8546	
12	0.1	-112.863	54.5484	3.3191	-91.3414	43.704	-8.09741	-67.1384	42.9836	-22.8812	-51.8614	41.7962	-38.6952	-108.161	69.0083	-69.7245	-100.304	68.4884	-92.66	-99.9089	65.692	-115.38	-128.424	64.9492	-80.5115	-127.213	60.3085	-108.239	-125.235	54.7091	-133.12	-152.409	54.7253	-79.1534	-144.591	52.5522	-104.791	-143.436	48.3509	-129.45	-169.7	42.4369	-69.5707	-168.799	38.2289	-90.1098	-171.026	39.4035	-118.309	-160.248	63.3133	-32.528	-170.716	66.1476	-1.54702	-137.074	71.8979	-9.78478	
13	0.108333	-112.401	55.5956	9.46999	-86.8679	48.8365	-6.65177	-67.6119	48.7902	-25.4626	-53.8347	46.2409	-43.2899	-113.986	72.9036	-64.3558	-105.594	75.3568	-87.9358	-101.078	73.0486	-116.877	-130.937	69.4081	-80.0241	-125.793	66.0571	-105.419	-122.103	60.8851	-130.37	-148.581	57.6241	-78.9683	-145.722	54.7918	-100.082	-140.31	52.5118	-126.162	-163.986	44.6841	-72.2939	-165.021	38.5832	-94.933	-165.122	40.7598	-116.936	-161.895	62.1276	-30.9703	-171.834	65.2385	-2.50599	-140.268	75.3526	-5.73643	
14	0.116667	-111.656	60.3405	10.2744	-88.7898	52.9445	-3.77414	-69.0961	53.2889	-24.3151	-59.6477	51.1509	-46.1688	-115.635	78.6484	-65.4576	-108.874	80.652	-88.1063	-103.653	79.9223	-114.359	-130.98	72.9094	-75.014	-125.721	71.553	-102.23	-121.963	65.6786	-134.299	-147.778	60.0755	-76.8634	-144.195	58.6868	-101.484	-137.457	57.3426	-124.349	-166.216	43.5041	-72.5523	-164.285	40.4409	-90.2399	-164.664	42.6182	-119.06	-167.391	61.4305	-28.4623	-171.298	61.2643	-1.94877	-142.657	75.5941	-7.35404	
15	0.125	-112.598	62.374	10.7577	-89.3839	57.482	-7.00943	-70.8069	59.6998	-30.6198	-62.8053	55.3609	-48.3419	-115.715	83.6108	-61.7959	-107.843	87.9275	-85.9478	-107.846	86.9836	-115.498	-134.578	74.8332	-73.5102	-124.795	76.7533	-103.344	-121.071	73.3607	-129.04	-149.07	61.505	-74.6226	-142.449	62.0341	-98.4953	-137.625	61.2412	-124.978	-165.101	43.6885	-70.9176	-159.739	43.2178	-90.703	-159.582	46.8753	-116.414	-164.208	61.1539	-29.8451	-172.86	60.0791	-0.871232	-142.635	79.1303	-8.02077	
16	0.133333	-114.471	65.6854	13.7602	-88.8505	63.9362	-8.32066	-75.6189	64.2438	-29.01	-71.3933	60.1883	-56.1356	-119.633	86.0076	-58.2746	-113.459	90.0769	-87.0793	-111.466	93.013	-110.251	-136.686	74.7394	-71.3458	-130.049	77.2953	-100.453	-123.403	76.8054	-126.909	-146.055	63.4629	-73.9858	-144.447	63.5955	-100.087	-137.767	65.9155	-127.332	-161.498	43.872	-70.4426	-158.347	43.714	-89.011	-158.179	47.7324	-112.848	-167.08	59.1056	-25.0152	-173.505	59.575	-1.48078	-146.748	78.2097	-7.74463	
17	0.141667	-115.431	70.2278	13.9625	-92.9698	67.5966	-3.18051	-79.5403	68.8098	-28.1721	-78.7036	62.0597	-55.9363	-120.872	90.5677	-55.5544	-117.241	93.7394	-84.869	-115.352	97.4832	-107.123	-137.456	78.4608	-73.816	-130.387	80.9006	-97.0672	-125.163	79.9492	-129.317	-149.995	62.5736	-73.7955	-146.579	64.1219	-95.8441	-136.043	69.8208	-122.112	-159.715	43.9002	-65.5482	-157.551	44.1811	-90.0654	-157.814	48.5507	-108.967	-166.288	59.3788	-26.0322	-175.966	55.0843	-1.32273	-151.135	76.527	-5.07994	
